<svg xmlns="http://www.w3.org/2000/svg" width="1200" height="760" viewBox="0 0 1200 760" role="img" aria-label="Portfolio Website preview">
  <rect width="1200" height="760" fill="#101214"/>
  <rect x="90" y="86" width="1020" height="588" rx="34" fill="#f8fafc"/>
  <rect x="150" y="145" width="900" height="58" rx="18" fill="#171a1d"/>
  <circle cx="188" cy="174" r="10" fill="#2dd4bf"/>
  <circle cx="222" cy="174" r="10" fill="#f59e0b"/>
  <circle cx="256" cy="174" r="10" fill="#ef4444"/>
  <rect x="160" y="270" width="360" height="44" rx="22" fill="#0f766e"/>
  <rect x="160" y="338" width="520" height="22" rx="11" fill="#d9e2ea"/>
  <rect x="160" y="383" width="455" height="22" rx="11" fill="#d9e2ea"/>
  <rect x="160" y="468" width="154" height="52" rx="18" fill="#c2410c"/>
  <rect x="342" y="468" width="154" height="52" rx="18" fill="#102027"/>
  <circle cx="845" cy="379" r="145" fill="#0f766e"/>
  <rect x="745" y="352" width="200" height="122" rx="20" fill="#ffffff" opacity=".95"/>
  <path d="M792 414h106M792 384h106" stroke="#102027" stroke-width="18" stroke-linecap="round"/>
</svg>
