<svg xmlns="http://www.w3.org/2000/svg" width="1200" height="760" viewBox="0 0 1200 760" role="img" aria-label="Task Management App preview">
  <rect width="1200" height="760" fill="#fff7ed"/>
  <rect x="96" y="84" width="1008" height="592" rx="36" fill="#171a1d"/>
  <rect x="160" y="148" width="220" height="464" rx="26" fill="#ffffff"/>
  <rect x="430" y="148" width="220" height="464" rx="26" fill="#ffffff"/>
  <rect x="700" y="148" width="220" height="464" rx="26" fill="#ffffff"/>
  <rect x="185" y="188" width="110" height="22" rx="11" fill="#0f766e"/>
  <rect x="455" y="188" width="110" height="22" rx="11" fill="#c2410c"/>
  <rect x="725" y="188" width="110" height="22" rx="11" fill="#f59e0b"/>
  <rect x="185" y="260" width="170" height="92" rx="16" fill="#e6fffb"/>
  <rect x="455" y="260" width="170" height="92" rx="16" fill="#fff7ed"/>
  <rect x="725" y="260" width="170" height="92" rx="16" fill="#fef3c7"/>
  <rect x="185" y="386" width="170" height="92" rx="16" fill="#eef2ff"/>
  <rect x="455" y="386" width="170" height="92" rx="16" fill="#f1f5f9"/>
  <rect x="725" y="386" width="170" height="92" rx="16" fill="#dcfce7"/>
  <circle cx="1002" cy="566" r="54" fill="#2dd4bf"/>
  <path d="M982 566h40M1002 546v40" stroke="#102027" stroke-width="13" stroke-linecap="round"/>
</svg>
